<mxfile host="app.diagrams.net" modified="2024-05-29T19:32:46.740Z" agent="Mozilla/5.0 (Macintosh; Intel Mac OS X 10_15_7) AppleWebKit/537.36 (KHTML, like Gecko) Chrome/124.0.0.0 Safari/537.36" etag="nPa362HnLEGoBr1rpzDr" version="24.4.10" type="github">
  <diagram id="C5RBs43oDa-KdzZeNtuy" name="Page-1">
    <mxGraphModel dx="1029" dy="806" grid="1" gridSize="10" guides="1" tooltips="1" connect="1" arrows="1" fold="1" page="1" pageScale="1" pageWidth="827" pageHeight="1169" math="0" shadow="0">
      <root>
        <mxCell id="WIyWlLk6GJQsqaUBKTNV-0" />
        <mxCell id="WIyWlLk6GJQsqaUBKTNV-1" parent="WIyWlLk6GJQsqaUBKTNV-0" />
        <mxCell id="y52ms-SmLCUIpgJENhKe-23" value="" style="rounded=0;html=1;jettySize=auto;orthogonalLoop=1;fontSize=14;endArrow=open;endFill=0;endSize=8;strokeWidth=1;shadow=0;labelBackgroundColor=none;edgeStyle=orthogonalEdgeStyle;entryX=0.5;entryY=0;entryDx=0;entryDy=0;fontFamily=Times New Roman;" edge="1" parent="WIyWlLk6GJQsqaUBKTNV-1" source="y52ms-SmLCUIpgJENhKe-24" target="y52ms-SmLCUIpgJENhKe-26">
          <mxGeometry relative="1" as="geometry">
            <mxPoint x="240" y="170" as="targetPoint" />
          </mxGeometry>
        </mxCell>
        <mxCell id="y52ms-SmLCUIpgJENhKe-24" value="Начало" style="rounded=1;whiteSpace=wrap;html=1;fontSize=14;glass=0;strokeWidth=1;shadow=0;arcSize=50;fontFamily=Times New Roman;" vertex="1" parent="WIyWlLk6GJQsqaUBKTNV-1">
          <mxGeometry x="180" y="80" width="120" height="40" as="geometry" />
        </mxCell>
        <mxCell id="y52ms-SmLCUIpgJENhKe-25" style="edgeStyle=orthogonalEdgeStyle;rounded=0;orthogonalLoop=1;jettySize=auto;html=1;entryX=0.5;entryY=0;entryDx=0;entryDy=0;" edge="1" parent="WIyWlLk6GJQsqaUBKTNV-1" source="y52ms-SmLCUIpgJENhKe-26" target="y52ms-SmLCUIpgJENhKe-43">
          <mxGeometry relative="1" as="geometry" />
        </mxCell>
        <mxCell id="y52ms-SmLCUIpgJENhKe-26" value="Загрузка&amp;nbsp;&lt;div style=&quot;font-size: 14px;&quot;&gt;матрицы&amp;nbsp;&lt;/div&gt;&lt;div style=&quot;font-size: 14px;&quot;&gt;изображения&lt;/div&gt;" style="shape=parallelogram;perimeter=parallelogramPerimeter;whiteSpace=wrap;html=1;fixedSize=1;fontFamily=Times New Roman;fontSize=14;" vertex="1" parent="WIyWlLk6GJQsqaUBKTNV-1">
          <mxGeometry x="180" y="150" width="120" height="60" as="geometry" />
        </mxCell>
        <mxCell id="y52ms-SmLCUIpgJENhKe-27" value="" style="edgeStyle=orthogonalEdgeStyle;rounded=0;orthogonalLoop=1;jettySize=auto;html=1;endArrow=open;endFill=0;" edge="1" parent="WIyWlLk6GJQsqaUBKTNV-1" source="y52ms-SmLCUIpgJENhKe-28" target="y52ms-SmLCUIpgJENhKe-30">
          <mxGeometry relative="1" as="geometry" />
        </mxCell>
        <mxCell id="y52ms-SmLCUIpgJENhKe-28" value="Определение значений и координат трех точек на плоскости" style="rounded=0;whiteSpace=wrap;html=1;fontFamily=Times New Roman;fontSize=14;" vertex="1" parent="WIyWlLk6GJQsqaUBKTNV-1">
          <mxGeometry x="160" y="330" width="160" height="60" as="geometry" />
        </mxCell>
        <mxCell id="y52ms-SmLCUIpgJENhKe-48" value="" style="edgeStyle=orthogonalEdgeStyle;rounded=0;orthogonalLoop=1;jettySize=auto;html=1;" edge="1" parent="WIyWlLk6GJQsqaUBKTNV-1" source="y52ms-SmLCUIpgJENhKe-30" target="y52ms-SmLCUIpgJENhKe-47">
          <mxGeometry relative="1" as="geometry" />
        </mxCell>
        <mxCell id="y52ms-SmLCUIpgJENhKe-30" value="Расчет матрицы плоскости" style="whiteSpace=wrap;html=1;fontSize=14;fontFamily=Times New Roman;rounded=0;" vertex="1" parent="WIyWlLk6GJQsqaUBKTNV-1">
          <mxGeometry x="170" y="420" width="140" height="60" as="geometry" />
        </mxCell>
        <mxCell id="y52ms-SmLCUIpgJENhKe-31" value="Конец" style="rounded=1;whiteSpace=wrap;html=1;arcSize=50;fontFamily=Times New Roman;fontSize=14;" vertex="1" parent="WIyWlLk6GJQsqaUBKTNV-1">
          <mxGeometry x="180" y="900" width="120" height="60" as="geometry" />
        </mxCell>
        <mxCell id="y52ms-SmLCUIpgJENhKe-42" style="edgeStyle=orthogonalEdgeStyle;rounded=0;orthogonalLoop=1;jettySize=auto;html=1;entryX=0.5;entryY=0;entryDx=0;entryDy=0;" edge="1" parent="WIyWlLk6GJQsqaUBKTNV-1" source="y52ms-SmLCUIpgJENhKe-43" target="y52ms-SmLCUIpgJENhKe-28">
          <mxGeometry relative="1" as="geometry" />
        </mxCell>
        <mxCell id="y52ms-SmLCUIpgJENhKe-43" value="Конвертация изображения в&amp;nbsp;&lt;div&gt;черно-белое&lt;/div&gt;" style="rounded=0;whiteSpace=wrap;html=1;" vertex="1" parent="WIyWlLk6GJQsqaUBKTNV-1">
          <mxGeometry x="170" y="240" width="140" height="60" as="geometry" />
        </mxCell>
        <mxCell id="y52ms-SmLCUIpgJENhKe-44" style="edgeStyle=orthogonalEdgeStyle;rounded=0;orthogonalLoop=1;jettySize=auto;html=1;entryX=0.5;entryY=0;entryDx=0;entryDy=0;" edge="1" parent="WIyWlLk6GJQsqaUBKTNV-1" source="y52ms-SmLCUIpgJENhKe-45" target="y52ms-SmLCUIpgJENhKe-31">
          <mxGeometry relative="1" as="geometry" />
        </mxCell>
        <mxCell id="y52ms-SmLCUIpgJENhKe-45" value="Запись результирующей матрицы в изображение" style="whiteSpace=wrap;html=1;fontSize=14;fontFamily=Times New Roman;rounded=0;" vertex="1" parent="WIyWlLk6GJQsqaUBKTNV-1">
          <mxGeometry x="165" y="800" width="150" height="60" as="geometry" />
        </mxCell>
        <mxCell id="y52ms-SmLCUIpgJENhKe-50" value="" style="edgeStyle=orthogonalEdgeStyle;rounded=0;orthogonalLoop=1;jettySize=auto;html=1;" edge="1" parent="WIyWlLk6GJQsqaUBKTNV-1" source="y52ms-SmLCUIpgJENhKe-47" target="y52ms-SmLCUIpgJENhKe-49">
          <mxGeometry relative="1" as="geometry" />
        </mxCell>
        <mxCell id="y52ms-SmLCUIpgJENhKe-47" value="Построение матрицы плоскости" style="whiteSpace=wrap;html=1;fontSize=14;fontFamily=Times New Roman;rounded=0;" vertex="1" parent="WIyWlLk6GJQsqaUBKTNV-1">
          <mxGeometry x="170" y="525" width="140" height="60" as="geometry" />
        </mxCell>
        <mxCell id="y52ms-SmLCUIpgJENhKe-52" value="" style="edgeStyle=orthogonalEdgeStyle;rounded=0;orthogonalLoop=1;jettySize=auto;html=1;" edge="1" parent="WIyWlLk6GJQsqaUBKTNV-1" source="y52ms-SmLCUIpgJENhKe-49" target="y52ms-SmLCUIpgJENhKe-51">
          <mxGeometry relative="1" as="geometry" />
        </mxCell>
        <mxCell id="y52ms-SmLCUIpgJENhKe-49" value="Вычитание плостости из матрицы изображения" style="whiteSpace=wrap;html=1;fontSize=14;fontFamily=Times New Roman;rounded=0;" vertex="1" parent="WIyWlLk6GJQsqaUBKTNV-1">
          <mxGeometry x="170" y="620" width="140" height="60" as="geometry" />
        </mxCell>
        <mxCell id="y52ms-SmLCUIpgJENhKe-53" style="edgeStyle=orthogonalEdgeStyle;rounded=0;orthogonalLoop=1;jettySize=auto;html=1;entryX=0.5;entryY=0;entryDx=0;entryDy=0;" edge="1" parent="WIyWlLk6GJQsqaUBKTNV-1" source="y52ms-SmLCUIpgJENhKe-51" target="y52ms-SmLCUIpgJENhKe-45">
          <mxGeometry relative="1" as="geometry" />
        </mxCell>
        <mxCell id="y52ms-SmLCUIpgJENhKe-51" value="Эквализация гистограммы изображения" style="whiteSpace=wrap;html=1;fontSize=14;fontFamily=Times New Roman;rounded=0;" vertex="1" parent="WIyWlLk6GJQsqaUBKTNV-1">
          <mxGeometry x="170" y="710" width="140" height="60" as="geometry" />
        </mxCell>
      </root>
    </mxGraphModel>
  </diagram>
</mxfile>
